<?xml version="1.0" encoding="UTF-8"?>
<svg version="1.1" xmlns="http://www.w3.org/2000/svg" width="240" height="240">
<path d="M0 0 C4.39961692 3.07902565 7.17582754 6.64423772 10.1875 11 C10.62513672 11.61617187 11.06277344 12.23234375 11.51367188 12.8671875 C13.22859859 15.30735803 14.85096403 17.69895725 16.17578125 20.375 C16.89696235 22.19655952 16.89696235 22.19655952 19 23 C19.24492188 22.29617187 19.48984375 21.59234375 19.7421875 20.8671875 C23.83216729 11.54406587 32.31031694 0.96152788 42 -3 C50.84061577 -4.60738469 59.18423636 -4.36245009 67.3125 -0.375 C75.26031476 6.64865025 77.14133894 15.746909 78 26 C79.95745042 66.43515373 79.95745042 66.43515373 70.625 79.875 C65.01365978 85.86135553 55.55592021 86.11777168 47.8125 86.4375 C40.27253803 86.19876769 33.90301342 84.10561908 28.3125 78.9375 C24.1962761 74.44885584 21.10304323 69.21575351 18 64 C15.05589793 66.7709196 12.58334742 69.50801078 10.25 72.8125 C5.44946564 79.33281342 0.00371746 84.96396661 -8 87 C-16.87836806 87.84818156 -24.64063112 87.56675636 -31.75 81.75 C-41.19005965 70.21214931 -41.51781217 55.39293177 -41.39111328 41.09057617 C-41.3749745 38.93409304 -41.39110955 36.77947549 -41.41015625 34.62304688 C-41.44629493 11.37762265 -41.44629493 11.37762265 -35.5625 2.8125 C-26.25615734 -6.12527463 -10.57257744 -6.46323602 0 0 Z M51 11 C44.9507575 17.82547273 39.43223355 24.93288071 34.25 32.4375 C33.70053711 33.20626465 33.15107422 33.9750293 32.58496094 34.76708984 C32.08770508 35.50266113 31.59044922 36.23823242 31.078125 36.99609375 C30.62856445 37.64763428 30.17900391 38.2991748 29.71582031 38.97045898 C28.75874183 41.06004873 28.75874183 41.06004873 29.70703125 43.47753906 C30.92213356 45.84808987 32.18705146 48.11143723 33.609375 50.36328125 C34.11726563 51.16830078 34.62515625 51.97332031 35.1484375 52.80273438 C35.67695313 53.63095703 36.20546875 54.45917969 36.75 55.3125 C37.26304687 56.12912109 37.77609375 56.94574219 38.3046875 57.78710938 C43.21979136 65.71348324 43.21979136 65.71348324 49 73 C49.66 73 50.32 73 51 73 C51.81832722 71.10667466 52.62942268 69.21022267 53.4375 67.3125 C53.88996094 66.25675781 54.34242188 65.20101562 54.80859375 64.11328125 C57.49175868 57.10186339 57.25417688 50.01575709 57.29516602 42.61010742 C57.30662282 41.17413429 57.32697376 39.73820159 57.35668945 38.30249023 C57.5471148 29.07803128 57.18325992 20.46967927 53 12 C52.34 11.67 51.68 11.34 51 11 Z M-16 12 C-23.8215985 28.76056821 -21.70356938 51.10887911 -17.9140625 68.515625 C-17.61242187 69.33546875 -17.31078125 70.1553125 -17 71 C-16.01 71.33 -15.02 71.66 -14 72 C-8.76672398 66.60177832 -4.31370172 60.80704584 -0.0625 54.625 C0.6641687 53.5721582 0.6641687 53.5721582 1.40551758 52.49804688 C3.3489174 49.63430768 4.89752294 47.30743117 6 44 C2.62707401 36.38161504 -2.67790283 29.32500367 -7.25 22.375 C-7.76908936 21.58085693 -8.28817871 20.78671387 -8.82299805 19.96850586 C-9.31968994 19.2235083 -9.81638184 18.47851074 -10.328125 17.7109375 C-10.7705957 17.04368652 -11.21306641 16.37643555 -11.66894531 15.68896484 C-13.07374746 13.72683295 -13.07374746 13.72683295 -16 12 Z " fill="#465999" transform="translate(101,67)"/>
<path d="M0 0 C3.0625 2.25 3.0625 2.25 5 4 C4.67 4.66 4.34 5.32 4 6 C3.319375 5.608125 2.63875 5.21625 1.9375 4.8125 C-2.23818782 3.65752252 -4.24373685 5.01942489 -8 7 C-10.33878876 8.56328365 -10.33878876 8.56328365 -12 10 C-12.33 9.01 -12.66 8.02 -13 7 C-13.70125 6.9175 -14.4025 6.835 -15.125 6.75 C-18 6 -18 6 -20.875 3.9375 C-24.64305846 1.60130375 -26.64028928 1.35411693 -31 2 C-33.50277911 3.66788932 -33.50277911 3.66788932 -35 6 C-35 6.99 -35 7.98 -35 9 C-34.484375 8.01 -33.96875 7.02 -33.4375 6 C-31 3 -31 3 -27.75 2.25 C-22.83593483 3.23281303 -19.52640777 5.46499124 -16 9 C-14.73604504 12.79186489 -15.5266365 13.35536396 -17 17 C-21.27480375 31.96181311 -21.33705775 50.13425482 -17.40234375 65.09765625 C-17 67 -17 67 -17 71 C-16.34 71 -15.68 71 -15 71 C-16.05366132 74.05561782 -16.97210299 74.98224736 -19.75 76.75 C-23.24092992 78.09266535 -25.30633696 78.55012003 -29 78 C-34.08316992 75.1628819 -35.46105823 71.32390666 -37 66 C-37.34202643 64.6688701 -37.67790616 63.33609298 -38 62 C-38.99 62.99 -38.99 62.99 -40 64 C-41.0313195 56.55186846 -41.22066625 49.20580604 -41.24023438 41.6940918 C-41.24987279 39.46689517 -41.28093614 37.24065033 -41.3125 35.01367188 C-41.48741724 11.45047458 -41.48741724 11.45047458 -35.5625 2.8125 C-26.16601812 -6.21184398 -10.67701058 -6.33345718 0 0 Z " fill="#37446E" transform="translate(101,67)"/>
<path d="M0 0 C5.64969579 5.40871351 8.30394239 12.24810954 8.80517578 20.00317383 C8.84400435 22.53219128 8.82353674 25.04922156 8.7734375 27.578125 C8.7321875 30.548125 8.6909375 33.518125 8.6484375 36.578125 C2.3784375 36.578125 -3.8915625 36.578125 -10.3515625 36.578125 C-10.50625 33.855625 -10.50625 33.855625 -10.6640625 31.078125 C-11.11135631 25.65309006 -12.17370788 21.54363353 -14.3515625 16.578125 C-14.939375 15.093125 -14.939375 15.093125 -15.5390625 13.578125 C-15.8071875 12.918125 -16.0753125 12.258125 -16.3515625 11.578125 C-20.19881668 15.25901143 -23.46541975 19.13998419 -26.6640625 23.390625 C-27.11845703 23.98810547 -27.57285156 24.58558594 -28.04101562 25.20117188 C-29.14790167 26.65760088 -30.25021514 28.11750317 -31.3515625 29.578125 C-32.3415625 29.248125 -33.3315625 28.918125 -34.3515625 28.578125 C-34.6815625 27.918125 -35.0115625 27.258125 -35.3515625 26.578125 C-36.3415625 26.248125 -37.3315625 25.918125 -38.3515625 25.578125 C-36.6015625 21.703125 -36.6015625 21.703125 -34.3515625 20.578125 C-34.3515625 19.588125 -34.3515625 18.598125 -34.3515625 17.578125 C-35.0115625 17.578125 -35.6715625 17.578125 -36.3515625 17.578125 C-37.3415625 20.053125 -37.3415625 20.053125 -38.3515625 22.578125 C-41.34480513 21.4806027 -42.19767151 20.90129608 -43.6015625 17.953125 C-43.9728125 16.7775 -43.9728125 16.7775 -44.3515625 15.578125 C-43.0315625 14.918125 -41.7115625 14.258125 -40.3515625 13.578125 C-40.6815625 12.918125 -41.0115625 12.258125 -41.3515625 11.578125 C-40.14704463 6.30835932 -36.33557661 2.95951513 -32.3515625 -0.421875 C-23.2539213 -6.10790075 -8.8472503 -6.49544959 0 0 Z " fill="#929497" transform="translate(169.3515625,67.421875)"/>
<path d="M0 0 C0.99 0.66 1.98 1.32 3 2 C3.99 1.34 4.98 0.68 6 0 C6.2475 0.61875 6.495 1.2375 6.75 1.875 C7.80469245 4.13093067 7.80469245 4.13093067 9.91381836 4.88012695 C12.47725662 6.25619381 13.21133702 7.52318466 14.62890625 10.04296875 C15.10102539 10.8625708 15.57314453 11.68217285 16.05957031 12.52661133 C16.55553711 13.40470459 17.05150391 14.28279785 17.5625 15.1875 C28.29838795 35.34179474 28.29838795 35.34179474 45.4921875 48.8515625 C47.66580207 49.35941637 49.78364069 49.74860739 52 50 C52 50.33 52 50.66 52 51 C40.62521825 53.5078259 29.47693885 55.12526094 19 49 C12.61189211 44.27148303 7.66185384 36.9575223 4 30 C4.33 29.01 4.66 28.02 5 27 C4.10696437 25.53600716 3.19779905 24.07863602 2.19775391 22.68554688 C0.16525337 19.82529744 -1.55456209 16.78380874 -3.3125 13.75 C-3.68439453 13.12609375 -4.05628906 12.5021875 -4.43945312 11.859375 C-5.35646646 10.27466667 -6.18624472 8.64012692 -7 7 C-6.67 6.34 -6.34 5.68 -6 5 C-2.86328125 4.97265625 -2.86328125 4.97265625 1 6 C3.41909256 8.52247899 5.0743012 11.4195554 6.8125 14.4375 C7.75490242 15.9996691 8.69884475 17.56091054 9.64453125 19.12109375 C10.05034424 19.8164624 10.45615723 20.51183105 10.87426758 21.22827148 C12.00542535 23.15049843 12.00542535 23.15049843 14 25 C13.61142822 24.38479492 13.22285645 23.76958984 12.82250977 23.13574219 C11.06357219 20.34397837 9.31296731 17.5470818 7.5625 14.75 C6.95083984 13.78191406 6.33917969 12.81382813 5.70898438 11.81640625 C5.12568359 10.88183594 4.54238281 9.94726562 3.94140625 8.984375 C3.40201416 8.12553711 2.86262207 7.26669922 2.30688477 6.38183594 C1.11413532 4.20801498 0.45350636 2.4219691 0 0 Z " fill="#2A385F" transform="translate(114,100)"/>
<path d="M0 0 C2.44921875 0.8671875 2.44921875 0.8671875 5 2 C5.8125 4.125 5.8125 4.125 6 6 C5.34 6 4.68 6 4 6 C4 7.32 4 8.64 4 10 C4.99 10 5.98 10 7 10 C7.66 9.01 8.32 8.02 9 7 C10.125 12.75 10.125 12.75 9 15 C9.66 15 10.32 15 11 15 C10.26582645 21.19728849 6.51763114 24.05562887 2 28 C-4.80702914 32.79586144 -11.89351644 32.53332129 -20 32 C-26.31529141 30.72286304 -30.58996921 27.62318818 -34.15625 22.26171875 C-37.03950127 17.45286753 -38.1439891 13.79125868 -38.0625 8.25 C-38.05347656 7.45078125 -38.04445312 6.6515625 -38.03515625 5.828125 C-38.02355469 5.22484375 -38.01195312 4.6215625 -38 4 C-36.09356237 6.85965645 -35.4952715 8.6141801 -34.6875 11.875 C-33.33161254 16.43692677 -32.17850961 19.3657222 -28 22 C-23.92475845 22.63115596 -20.58295558 21.92469682 -17.02734375 19.84765625 C-10.27175687 14.39602248 -5.19647433 6.88723896 0 0 Z " fill="#C4C5C6" transform="translate(100,122)"/>
<path d="M0 0 C1.26650391 0.00966797 1.26650391 0.00966797 2.55859375 0.01953125 C3.43128906 0.03628906 4.30398437 0.05304688 5.203125 0.0703125 C6.53537109 0.08384766 6.53537109 0.08384766 7.89453125 0.09765625 C10.08100558 0.12116673 12.26692594 0.15402751 14.453125 0.1953125 C15.0234375 2.10546875 15.0234375 2.10546875 15.453125 4.1953125 C14.328125 5.6328125 14.328125 5.6328125 12.453125 7.1953125 C8.19527916 11.18518203 4.77937141 15.56291245 1.328125 20.2578125 C0.80347656 20.96486328 0.27882812 21.67191406 -0.26171875 22.40039062 C-1.26108718 23.74764046 -2.25890957 25.09603907 -3.25488281 26.44580078 C-4.67569957 28.36975635 -6.10787798 30.2849199 -7.546875 32.1953125 C-8.536875 31.8653125 -9.526875 31.5353125 -10.546875 31.1953125 C-10.876875 30.5353125 -11.206875 29.8753125 -11.546875 29.1953125 C-12.536875 28.8653125 -13.526875 28.5353125 -14.546875 28.1953125 C-12.796875 24.3203125 -12.796875 24.3203125 -10.546875 23.1953125 C-10.546875 22.2053125 -10.546875 21.2153125 -10.546875 20.1953125 C-11.206875 20.1953125 -11.866875 20.1953125 -12.546875 20.1953125 C-13.536875 22.6703125 -13.536875 22.6703125 -14.546875 25.1953125 C-17.54011763 24.0977902 -18.39298401 23.51848358 -19.796875 20.5703125 C-20.168125 19.3946875 -20.168125 19.3946875 -20.546875 18.1953125 C-19.226875 17.5353125 -17.906875 16.8753125 -16.546875 16.1953125 C-16.876875 15.5353125 -17.206875 14.8753125 -17.546875 14.1953125 C-16.356981 8.98952626 -12.51711447 5.52059746 -8.546875 2.1953125 C-5.57195144 0.43343762 -3.44360627 -0.04653522 0 0 Z " fill="#C1C3C6" transform="translate(145.546875,64.8046875)"/>
<path d="M0 0 C1.79244141 0.01740234 1.79244141 0.01740234 3.62109375 0.03515625 C5.41740234 0.04869141 5.41740234 0.04869141 7.25 0.0625 C8.17683594 0.07410156 9.10367188 0.08570312 10.05859375 0.09765625 C10.1170642 3.95175832 10.1523478 7.8057449 10.18359375 11.66015625 C10.20035156 12.74619141 10.21710938 13.83222656 10.234375 14.95117188 C10.27981447 22.42596494 9.7743447 28.46238669 6.05859375 35.09765625 C5.06859375 34.76765625 4.07859375 34.43765625 3.05859375 34.09765625 C3.05859375 33.43765625 3.05859375 32.77765625 3.05859375 32.09765625 C0.74859375 31.43765625 -1.56140625 30.77765625 -3.94140625 30.09765625 C-3.94140625 29.43765625 -3.94140625 28.77765625 -3.94140625 28.09765625 C-4.93140625 28.42765625 -5.92140625 28.75765625 -6.94140625 29.09765625 C-6.94140625 28.43765625 -6.94140625 27.77765625 -6.94140625 27.09765625 C-7.93140625 26.76765625 -8.92140625 26.43765625 -9.94140625 26.09765625 C-9.61140625 17.84765625 -9.28140625 9.59765625 -8.94140625 1.09765625 C-7.29140625 1.09765625 -5.64140625 1.09765625 -3.94140625 1.09765625 C-2.94140625 0.09765625 -2.94140625 0.09765625 0 0 Z " fill="#919DA1" transform="translate(167.94140625,104.90234375)"/>
<path d="M0 0 C8.12774576 1.51534243 13.92887242 8.26433191 18.6875 14.6875 C22.20404719 19.90459574 25.43129324 25.3060679 28.6875 30.6875 C30.16133653 33.10605291 31.63744456 35.52320515 33.11425781 37.93994141 C34.05589181 39.4825576 34.99546036 41.02643713 35.93261719 42.57177734 C37.86845898 45.75703828 39.82853764 48.89880727 41.8984375 52 C43.76076618 54.79755924 45.24387146 57.65588007 46.6875 60.6875 C46.0275 60.6875 45.3675 60.6875 44.6875 60.6875 C44.57535156 61.27015625 44.46320313 61.8528125 44.34765625 62.453125 C43.62749124 64.89060657 42.64370605 66.4125586 41.125 68.4375 C40.66996094 69.05109375 40.21492188 69.6646875 39.74609375 70.296875 C39.22208984 70.98523438 39.22208984 70.98523438 38.6875 71.6875 C38.3575 71.0275 38.0275 70.3675 37.6875 69.6875 C37.0275 69.6875 36.3675 69.6875 35.6875 69.6875 C35.3575 68.0375 35.0275 66.3875 34.6875 64.6875 C32.7075 65.1825 32.7075 65.1825 30.6875 65.6875 C30.3575 64.6975 30.0275 63.7075 29.6875 62.6875 C30.3475 61.6975 31.0075 60.7075 31.6875 59.6875 C31.6875 58.6975 31.6875 57.7075 31.6875 56.6875 C30.0375 56.0275 28.3875 55.3675 26.6875 54.6875 C27.14382812 54.10742188 27.60015625 53.52734375 28.0703125 52.9296875 C28.93269531 51.75792969 28.93269531 51.75792969 29.8125 50.5625 C30.39257812 49.79679687 30.97265625 49.03109375 31.5703125 48.2421875 C32.97291867 45.69396919 32.97291867 45.69396919 32.125 42.796875 C30.53262343 39.35249524 28.66518121 36.20940915 26.5625 33.0625 C26.16724121 32.45929932 25.77198242 31.85609863 25.36474609 31.23461914 C24.14670077 29.38034312 22.91881302 27.53298721 21.6875 25.6875 C21.30658203 25.11531738 20.92566406 24.54313477 20.53320312 23.95361328 C18.83299154 21.40105486 17.1283127 18.85175094 15.4140625 16.30859375 C14.27637796 14.58147536 13.19072154 12.81877459 12.1640625 11.0234375 C9.96736556 7.5482397 7.33808512 5.53153273 3.6875 3.6875 C0.05783135 2.76961088 0.05783135 2.76961088 -3.3125 3.6875 C-5.80790371 6.55365486 -5.80790371 6.55365486 -7.3125 9.6875 C-8.125 8 -8.125 8 -8.3125 5.6875 C-5.79951555 2.23214639 -4.21141541 0.87406735 0 0 Z " fill="#84ACB6" transform="translate(73.3125,67.3125)"/>
<path d="M0 0 C0.33 0 0.66 0 1 0 C1 3.96 1 7.92 1 12 C2.65 11.67 4.3 11.34 6 11 C8.44043988 11.08322732 10.87923369 11.23283274 13.3125 11.4375 C15.19388672 11.59025391 15.19388672 11.59025391 17.11328125 11.74609375 C18.54220703 11.87177734 18.54220703 11.87177734 20 12 C20 8.37 20 4.74 20 1 C20.33 1 20.66 1 21 1 C21 9.91 21 18.82 21 28 C20.67 28 20.34 28 20 28 C20 23.05 20 18.1 20 13 C16.90625 13.2165625 16.90625 13.2165625 13.75 13.4375 C12.58984375 13.51871094 11.4296875 13.59992188 10.234375 13.68359375 C7.13050083 13.90211812 7.13050083 13.90211812 4.703125 14.59765625 C3 15 3 15 1 14 C1 22.25 1 30.5 1 39 C2.65 39.66 4.3 40.32 6 41 C6.66 41.66 7.32 42.32 8 43 C8.804375 43.309375 9.60875 43.61875 10.4375 43.9375 C12.97065221 44.9878314 14.23145796 45.95221448 16 48 C15.67 47.01 15.34 46.02 15 45 C16.485 44.505 16.485 44.505 18 44 C16.82142553 49.77501493 14.84979125 54.3786801 10 58 C5.91570042 59.13091164 2.6799665 58.23537302 -1.25 56.875 C-4.47922007 54.67325904 -6.05815437 52.36088666 -8 49 C-7.01 48.505 -7.01 48.505 -6 48 C-5.1569251 46.15993187 -5.1569251 46.15993187 -4.5 43.9375 C-4.2628125 43.20402344 -4.025625 42.47054687 -3.78125 41.71484375 C-3.5234375 40.81894531 -3.265625 39.92304688 -3 39 C-2.65195313 37.90816406 -2.30390625 36.81632812 -1.9453125 35.69140625 C-0.28819582 28.96903625 -0.52504607 21.88805249 -0.375 15 C-0.33675034 13.54294718 -0.29769473 12.08591529 -0.2578125 10.62890625 C-0.16257494 7.08613074 -0.07827103 3.5431957 0 0 Z " fill="#7F8084" transform="translate(158,92)"/>
<path d="M0 0 C1.0625 1.875 1.0625 1.875 2 4 C1.67 4.66 1.34 5.32 1 6 C-0.32 6 -1.64 6 -3 6 C-1.7260411 8.03833424 -0.38938077 10.03852126 1 12 C1.66 12 2.32 12 3 12 C3.66 10.35 4.32 8.7 5 7 C5.99 7.33 6.98 7.66 8 8 C7.45773019 11.79588866 5.79872437 13.47211993 3 16 C3.598125 16.0825 4.19625 16.165 4.8125 16.25 C7.60170874 17.20630014 8.34476293 18.62860019 10 21 C9.20722656 21.99580078 9.20722656 21.99580078 8.3984375 23.01171875 C7.73070312 23.89472656 7.06296875 24.77773437 6.375 25.6875 C5.36566406 26.99267578 5.36566406 26.99267578 4.3359375 28.32421875 C2.6640189 30.89807092 2.6640189 30.89807092 3.7512207 33.39013672 C5.77442038 37.61848561 8.29799529 41.48787289 10.8125 45.4375 C11.33392578 46.27087891 11.85535156 47.10425781 12.39257812 47.96289062 C15.33385547 52.60797906 18.43781551 56.81912031 22 61 C23.05794332 62.96996343 24.07836462 64.96270075 25 67 C13.99815195 62.34351607 6.95655192 45.7051799 1 36 C0.43007324 35.08041504 -0.13985352 34.16083008 -0.72705078 33.21337891 C-2.43179491 30.46051517 -4.12416767 27.70045336 -5.8125 24.9375 C-6.34649414 24.07463379 -6.88048828 23.21176758 -7.43066406 22.32275391 C-7.91374023 21.52401855 -8.39681641 20.7252832 -8.89453125 19.90234375 C-9.32612549 19.19585693 -9.75771973 18.48937012 -10.20239258 17.76147461 C-10.46560303 17.18018799 -10.72881348 16.59890137 -11 16 C-10.67 15.34 -10.34 14.68 -10 14 C-9.34 14.33 -8.68 14.66 -8 15 C-7.90847656 14.28457031 -7.81695312 13.56914063 -7.72265625 12.83203125 C-6.87165786 9.49703757 -5.46671273 7.45460827 -3.4375 4.6875 C-2.79683594 3.80449219 -2.15617187 2.92148438 -1.49609375 2.01171875 C-1.00238281 1.34785156 -0.50867188 0.68398437 0 0 Z " fill="#7FB0C1" transform="translate(128,77)"/>
<path d="M0 0 C6.05930382 0.96948861 6.05930382 0.96948861 8.5546875 3.703125 C9.53809628 5.09584446 10.51306503 6.49455347 11.48046875 7.8984375 C15.75145689 13.80535684 20.11197005 16.55329039 27.27734375 17.7734375 C27.84582031 17.84820312 28.41429687 17.92296875 29 18 C29 18.33 29 18.66 29 19 C17.67878109 21.49601677 6.41178947 23.17862247 -4 17 C-7.88995023 13.83666311 -11.17929664 10.14809318 -14 6 C-13.67 5.34 -13.34 4.68 -13 4 C-10.0625 4.375 -10.0625 4.375 -7 5 C-6.67 5.66 -6.34 6.32 -6 7 C-5.731875 6.38125 -5.46375 5.7625 -5.1875 5.125 C-4 3 -4 3 -1 1 C-0.67 0.67 -0.34 0.34 0 0 Z " fill="#232C48" transform="translate(137,132)"/>
<path d="M0 0 C0.33 0 0.66 0 1 0 C1.07347656 1.25103516 1.07347656 1.25103516 1.1484375 2.52734375 C1.54730803 8.53103289 2.06535916 14.27045343 3.59765625 20.09765625 C4 22 4 22 4 26 C4.66 26 5.32 26 6 26 C4.94633868 29.05561782 4.02789701 29.98224736 1.25 31.75 C-2.24092992 33.09266535 -4.30633696 33.55012003 -8 33 C-13.08316992 30.1628819 -14.46105823 26.32390666 -16 21 C-16.18949219 20.34515625 -16.37898438 19.6903125 -16.57421875 19.015625 C-17.28060929 15.67161104 -17.05682682 12.4096091 -17 9 C-15 11 -15 11 -15 15 C-14.01 15 -13.02 15 -12 15 C-11.67 14.34 -11.34 13.68 -11 13 C-9.66666667 12.33333333 -8.33333333 11.66666667 -7 11 C-6.67 10.34 -6.34 9.68 -6 9 C-4.68 9 -3.36 9 -2 9 C-2 9.66 -2 10.32 -2 11 C-1.34 11 -0.68 11 0 11 C0 7.37 0 3.74 0 0 Z " fill="#262F4D" transform="translate(80,112)"/>
<path d="M0 0 C3.5742977 0.32493615 5.55712453 0.63870686 8.375 2.9375 C10 5 10 5 10 7 C11.65 6.34 13.3 5.68 15 5 C16.07518216 11.04789966 16.07583363 16.85747593 16 23 C9.73 23 3.46 23 -3 23 C-3.2475 20.133125 -3.495 17.26625 -3.75 14.3125 C-3.83862305 13.41829346 -3.92724609 12.52408691 -4.01855469 11.6027832 C-4.31404259 7.40713727 -4.36488662 5.56672351 -2.015625 1.91796875 C-1.01789063 0.96857422 -1.01789063 0.96857422 0 0 Z M5 4 C4.67 4.66 4.34 5.32 4 6 C4.99 5.67 5.98 5.34 7 5 C6.34 4.67 5.68 4.34 5 4 Z M6 0 C8 1 8 1 8 1 Z " fill="#949699" transform="translate(162,81)"/>
<path d="M0 0 C4.91406517 0.98281303 8.22359223 3.21499124 11.75 6.75 C13.01395496 10.54186489 12.2233635 11.10536396 10.75 14.75 C8.2820846 23.54635561 8.14981337 32.68054944 7.75 41.75 C7.255 40.265 7.255 40.265 6.75 38.75 C4.73491642 38.01676204 4.73491642 38.01676204 2.75 37.75 C3.74 37.75 4.73 37.75 5.75 37.75 C5.73839844 36.9765625 5.72679688 36.203125 5.71484375 35.40625 C5.66283171 29.4025741 5.88630617 23.68789506 6.75 17.75 C6.75 16.76 6.75 15.77 6.75 14.75 C4.77 15.74 4.77 15.74 2.75 16.75 C2.42 15.43 2.09 14.11 1.75 12.75 C0.43 12.75 -0.89 12.75 -2.25 12.75 C-2.58 15.06 -2.91 17.37 -3.25 19.75 C-6.16445456 18.29277272 -6.90437601 16.69755732 -8.25 13.75 C-8.13651071 7.50808882 -6.63490126 1.53113106 0 0 Z " fill="#2C3754" transform="translate(73.25,69.25)"/>
<path d="M0 0 C1.485 0.99 1.485 0.99 3 2 C3.99 1.34 4.98 0.68 6 0 C6.2475 0.61875 6.495 1.2375 6.75 1.875 C7.80211095 4.12958175 7.80211095 4.12958175 9.8984375 4.86254883 C12.54345335 6.29413908 13.36784073 7.73857845 14.875 10.32421875 C15.38546875 11.18853516 15.8959375 12.05285156 16.421875 12.94335938 C16.94265625 13.84892578 17.4634375 14.75449219 18 15.6875 C18.52078125 16.57373047 19.0415625 17.45996094 19.578125 18.37304688 C22.42351938 23.22674361 25.21727239 28.11015893 28 33 C26.9275 32.979375 25.855 32.95875 24.75 32.9375 C21.80196101 32.98663398 19.76595853 33.22283909 17 34 C16.64164063 32.73800781 16.28328125 31.47601563 15.9140625 30.17578125 C13.95053747 24.28405249 10.74252558 19.36746021 7.375 14.1875 C6.19049622 12.3507533 5.01060239 10.51102328 3.8359375 8.66796875 C3.31563965 7.86641357 2.7953418 7.0648584 2.25927734 6.23901367 C1.0697289 4.12397902 0.44796832 2.37097907 0 0 Z " fill="#2C406A" transform="translate(114,100)"/>
<path d="M0 0 C3.0625 2.25 3.0625 2.25 5 4 C4.67 4.66 4.34 5.32 4 6 C3.319375 5.608125 2.63875 5.21625 1.9375 4.8125 C-2.23818782 3.65752252 -4.24373685 5.01942489 -8 7 C-10.33878876 8.56328365 -10.33878876 8.56328365 -12 10 C-12.33 9.01 -12.66 8.02 -13 7 C-13.70125 6.9175 -14.4025 6.835 -15.125 6.75 C-18 6 -18 6 -20.875 3.9375 C-24.6905431 1.57186328 -26.58928992 1.19805271 -31 2 C-33.81334477 4.81334477 -35.79991544 7.69987317 -38 11 C-37.92849639 7.9968485 -37.60896861 5.77895678 -35.7265625 3.37109375 C-25.9609158 -5.77560351 -11.30009587 -6.70306288 0 0 Z " fill="#394973" transform="translate(101,67)"/>
<path d="M0 0 C0.33 0.66 0.66 1.32 1 2 C3.52733235 2.65555119 3.52733235 2.65555119 6 3 C6 3.66 6 4.32 6 5 C7.32 5.66 8.64 6.32 10 7 C9.67 7.66 9.34 8.32 9 9 C8.34 9 7.68 9 7 9 C7 9.99 7 10.98 7 12 C6.34 12 5.68 12 5 12 C4.67 12.99 4.34 13.98 4 15 C2.37667033 16.38576923 0.71275535 17.72641268 -1 19 C-5.7006237 17.51559252 -5.7006237 17.51559252 -7.125 15.0625 C-7.41375 14.381875 -7.7025 13.70125 -8 13 C-8.556875 12.54625 -9.11375 12.0925 -9.6875 11.625 C-11 10 -11 10 -10.9375 7.0625 C-9.06053791 0.93109051 -6.27062496 -0.57005681 0 0 Z " fill="#E3E5E5" transform="translate(143,67)"/>
<path d="M0 0 C1.32 0 2.64 0 4 0 C4 4.29 4 8.58 4 13 C3.34 13 2.68 13 2 13 C2 12.34 2 11.68 2 11 C0.68 11 -0.64 11 -2 11 C-2.66 12.32 -3.32 13.64 -4 15 C-4.99 15 -5.98 15 -7 15 C-7.33 15.99 -7.66 16.98 -8 18 C-9.32 17.67 -10.64 17.34 -12 17 C-12 15.35 -12 13.7 -12 12 C-12.99 12.495 -12.99 12.495 -14 13 C-14.05395478 11.37536158 -14.09277195 9.75021459 -14.125 8.125 C-14.14820313 7.22007813 -14.17140625 6.31515625 -14.1953125 5.3828125 C-14 3 -14 3 -12 1 C-9.8359375 0.8046875 -9.8359375 0.8046875 -7.375 0.875 C-6.14910156 0.90207031 -6.14910156 0.90207031 -4.8984375 0.9296875 C-3.95871094 0.96449219 -3.95871094 0.96449219 -3 1 C-2.67 1.99 -2.34 2.98 -2 4 C-1.34 4 -0.68 4 0 4 C0 2.68 0 1.36 0 0 Z " fill="#384577" transform="translate(76,110)"/>
<path d="M0 0 C0.99 0 1.98 0 3 0 C3 1.32 3 2.64 3 4 C3.99 4.33 4.98 4.66 6 5 C6.66 3.35 7.32 1.7 8 0 C8.66 0 9.32 0 10 0 C12.04169485 2.90548882 13 4.40142046 13 8 C13.66 8 14.32 8 15 8 C16.98 11.63 18.96 15.26 21 19 C20.01 19.33 19.02 19.66 18 20 C18 19.34 18 18.68 18 18 C15.9254644 16.7763932 15.9254644 16.7763932 13 17 C13.6366241 20.3425137 14.88838929 22.64821546 16.7578125 25.4765625 C17.30050781 26.311875 17.84320313 27.1471875 18.40234375 28.0078125 C19.55673132 29.76164395 20.71300171 31.51423748 21.87109375 33.265625 C22.41121094 34.09835938 22.95132813 34.93109375 23.5078125 35.7890625 C24.00941895 36.54912598 24.51102539 37.30918945 25.02783203 38.09228516 C25.34864746 38.72183105 25.66946289 39.35137695 26 40 C25.67 40.66 25.34 41.32 25 42 C20.11944824 35.46968426 15.87426312 28.61299683 11.6875 21.625 C11.15995117 20.74489258 10.63240234 19.86478516 10.08886719 18.95800781 C7.94179509 15.35186803 5.83757883 11.77567113 4 8 C3.34 8 2.68 8 2 8 C0.3125 5.6875 0.3125 5.6875 -1 3 C-0.67 2.01 -0.34 1.02 0 0 Z " fill="#587CB2" transform="translate(103,85)"/>
<path d="M0 0 C8.12774576 1.51534243 13.92887242 8.26433191 18.6875 14.6875 C21.70796358 19.16861367 24.50535914 23.78857195 27.30224609 28.41113281 C28.76415657 30.8134686 30.24892989 33.20052681 31.73828125 35.5859375 C32.74244298 37.20296638 33.74635482 38.82015047 34.75 40.4375 C35.22727539 41.19981934 35.70455078 41.96213867 36.19628906 42.74755859 C36.63811523 43.46508301 37.07994141 44.18260742 37.53515625 44.921875 C37.92711182 45.55319336 38.31906738 46.18451172 38.72290039 46.83496094 C39.73099351 48.77103043 40.24613259 50.55643545 40.6875 52.6875 C39.3675 53.3475 38.0475 54.0075 36.6875 54.6875 C35.02083333 53.02083333 33.35416667 51.35416667 31.6875 49.6875 C31.6875 46.6875 31.6875 46.6875 32.6875 43.6875 C28.27408466 33.71897499 21.02112974 24.58898202 14.93457031 15.58325195 C13.9139362 14.03172026 12.96208734 12.43513664 12.03125 10.828125 C9.907084 7.44427917 7.22945777 5.47666142 3.6875 3.6875 C0.05783135 2.76961088 0.05783135 2.76961088 -3.3125 3.6875 C-5.80790371 6.55365486 -5.80790371 6.55365486 -7.3125 9.6875 C-8.125 8 -8.125 8 -8.3125 5.6875 C-5.79951555 2.23214639 -4.21141541 0.87406735 0 0 Z " fill="#6098B1" transform="translate(73.3125,67.3125)"/>
<path d="M0 0 C2.97 0 5.94 0 9 0 C9.12152487 7.73708326 8.84800767 15.307359 8 23 C2.25 23.125 2.25 23.125 0 22 C0 14.74 0 7.48 0 0 Z " fill="#B3BFC3" transform="translate(169,105)"/>
<path d="M0 0 C0.99 0 1.98 0 3 0 C3.12152487 7.73708326 2.84800767 15.307359 2 23 C-0.64 23 -3.28 23 -6 23 C-7.22625047 20.54749907 -7.03425355 19.15689565 -6.87890625 16.4296875 C-6.83056641 15.53378906 -6.78222656 14.63789062 -6.73242188 13.71484375 C-6.67634766 12.77769531 -6.62027344 11.84054688 -6.5625 10.875 C-6.51029297 9.93011719 -6.45808594 8.98523438 -6.40429688 8.01171875 C-6.27443239 5.6741581 -6.1394613 3.33700455 -6 1 C-4.7934375 1.0309375 -4.7934375 1.0309375 -3.5625 1.0625 C-1.06645115 1.29633621 -1.06645115 1.29633621 0 0 Z " fill="#ADB1B5" transform="translate(165,105)"/>
<path d="M0 0 C0.33 0 0.66 0 1 0 C2.07518216 6.04789966 2.07583363 11.85747593 2 18 C-3.94 18 -9.88 18 -16 18 C-16 15.69 -16 13.38 -16 11 C-14.68 11 -13.36 11 -12 11 C-11.34 9.35 -10.68 7.7 -10 6 C-8.35 6.33 -6.7 6.66 -5 7 C-5 7.66 -5 8.32 -5 9 C-6.32 8.67 -7.64 8.34 -9 8 C-9 8.66 -9 9.32 -9 10 C-6.06556598 9.73343428 -6.06556598 9.73343428 -3 9 C-0.87491756 5.81237635 -0.4979837 3.73487777 0 0 Z " fill="#AEB0B3" transform="translate(176,86)"/>
<path d="M0 0 C0.66 0.99 1.32 1.98 2 3 C3.32 2.01 4.64 1.02 6 0 C6.5625 1.9375 6.5625 1.9375 7 4 C6.67 4.33 6.34 4.66 6 5 C5.77376479 6.48437809 5.60587035 7.97777425 5.46484375 9.47265625 C5.33432617 10.82133789 5.33432617 10.82133789 5.20117188 12.19726562 C5.0706543 13.61555664 5.0706543 13.61555664 4.9375 15.0625 C4.84662109 16.01189453 4.75574219 16.96128906 4.66210938 17.93945312 C4.43743502 20.29262135 4.21691818 22.64610619 4 25 C1.69 25.33 -0.62 25.66 -3 26 C-3.55353075 8.14350797 -3.55353075 8.14350797 0 0 Z " fill="#374574" transform="translate(75,82)"/>
<path d="M0 0 C2.475 0.99 2.475 0.99 5 2 C4.01 2.495 4.01 2.495 3 3 C4.98 3.66 6.96 4.32 9 5 C8.67 6.98 8.34 8.96 8 11 C8.66 11 9.32 11 10 11 C9.42655063 13.86724686 9.1385485 14.8614515 7 17 C3.875 16.625 3.875 16.625 1 16 C1 15.34 1 14.68 1 14 C0.34 13.67 -0.32 13.34 -1 13 C-1 12.34 -1 11.68 -1 11 C-3.31 10.67 -5.62 10.34 -8 10 C-7.8125 8.1875 -7.8125 8.1875 -7 6 C-4.625 4.1875 -4.625 4.1875 -2 3 C-1.01 3.33 -0.02 3.66 1 4 C0.67 2.68 0.34 1.36 0 0 Z " fill="#E4E4E4" transform="translate(97,131)"/>
<path d="M0 0 C2.4375 0.75 2.4375 0.75 5 2 C5.8125 4.125 5.8125 4.125 6 6 C5.34 6 4.68 6 4 6 C4 7.32 4 8.64 4 10 C4.99 10 5.98 10 7 10 C7.66 9.01 8.32 8.02 9 7 C10.125 12.75 10.125 12.75 9 15 C9.66 15 10.32 15 11 15 C10.6875 17.375 10.6875 17.375 10 20 C9.01 20.66 8.02 21.32 7 22 C7 21.34 7 20.68 7 20 C6.34 20 5.68 20 5 20 C5 18.02 5 16.04 5 14 C3.35 14 1.7 14 0 14 C0.33 13.01 0.66 12.02 1 11 C-0.32 10.34 -1.64 9.68 -3 9 C-2.67 10.32 -2.34 11.64 -2 13 C-3.98 13.33 -5.96 13.66 -8 14 C-6.58036591 8.32146365 -3.60636039 4.46825784 0 0 Z " fill="#C3CCCF" transform="translate(100,122)"/>
<path d="M0 0 C2 1.8125 2 1.8125 4 4 C4 4.99 4 5.98 4 7 C4.66 7.33 5.32 7.66 6 8 C6 9.32 6 10.64 6 12 C6.87676639 14.02170927 6.87676639 14.02170927 8.16015625 16.01171875 C8.62099609 16.76549805 9.08183594 17.51927734 9.55664062 18.29589844 C10.05357422 19.08512695 10.55050781 19.87435547 11.0625 20.6875 C11.56330078 21.49606445 12.06410156 22.30462891 12.58007812 23.13769531 C15.67036211 28.06743405 18.93013022 32.73339573 22.62890625 37.23046875 C24.52305091 39.67504861 25.76746124 42.17241108 27 45 C18.50862643 41.40606338 13.41291544 30.77242287 8.625 23.3125 C8.10099609 22.50498291 7.57699219 21.69746582 7.03710938 20.86547852 C4.13596253 16.26175184 2.31184208 12.2672447 1 7 C0.34 6.01 -0.32 5.02 -1 4 C-0.625 1.8125 -0.625 1.8125 0 0 Z " fill="#669BB3" transform="translate(126,99)"/>
<path d="M0 0 C3.79474312 -0.4412492 5.4654506 -0.4041715 8.5625 1.9375 C11.57117659 5.71763213 13.80329971 9.70942369 16 14 C15.01 14.33 14.02 14.66 13 15 C12.67 15.66 12.34 16.32 12 17 C10.265625 16.93359375 10.265625 16.93359375 8 16 C6.40234664 13.69389816 5.06469411 11.51903029 3.75 9.0625 C3.38648437 8.41603516 3.02296875 7.76957031 2.6484375 7.10351562 C0 2.30944549 0 2.30944549 0 0 Z " fill="#2C406B" transform="translate(107,105)"/>
<path d="M0 0 C1.53166168 4.08443115 0.63081652 7.79455657 0 12 C0.66 12 1.32 12 2 12 C2.66 12.66 3.32 13.32 4 14 C5.64991582 14.70710678 7.31562256 15.37943989 9 16 C9 16.66 9 17.32 9 18 C9.66 18 10.32 18 11 18 C11 18.66 11 19.32 11 20 C11.66 20.33 12.32 20.66 13 21 C12 22 12 22 8.3125 22.25 C4.18469479 22.17615733 1.46974257 21.36573357 -2 19 C-4.375 15.8125 -4.375 15.8125 -6 13 C-5.34 12.67 -4.68 12.34 -4 12 C-3.12626819 9.98852038 -3.12626819 9.98852038 -2.4375 7.625 C-2.18871094 6.83351562 -1.93992188 6.04203125 -1.68359375 5.2265625 C-1.34521484 4.12441406 -1.34521484 4.12441406 -1 3 C-0.67 2.01 -0.34 1.02 0 0 Z " fill="#505964" transform="translate(156,128)"/>
<path d="M0 0 C3.125 1 3.125 1 6.125 3 C6.125 3.99 6.125 4.98 6.125 6 C-0.60881295 7.94244604 -0.60881295 7.94244604 -3.1875 8.5 C-5.11956189 8.92650065 -5.11956189 8.92650065 -6.875 11 C-7.52267793 13.57061311 -7.52267793 13.57061311 -7.875 16 C-10.05354707 12.7321794 -11.37260034 9.61941735 -12.875 6 C-5.20543478 0 -5.20543478 0 0 0 Z " fill="#5C5D60" transform="translate(164.875,71)"/>
<path d="M0 0 C1.32 0 2.64 0 4 0 C3 5 3 5 2.5 7.125 C1.82429444 11.01030697 1.63868389 14.87787075 1.4375 18.8125 C1.39431641 19.60076172 1.35113281 20.38902344 1.30664062 21.20117188 C1.20121679 23.13394215 1.10016906 25.06695026 1 27 C3.64 27 6.28 27 9 27 C9 27.66 9 28.32 9 29 C2.73 29 -3.54 29 -10 29 C-10 28.34 -10 27.68 -10 27 C-7.03 27 -4.06 27 -1 27 C-1.12568359 25.06447266 -1.12568359 25.06447266 -1.25390625 23.08984375 C-1.35713949 21.37241795 -1.45998344 19.65496873 -1.5625 17.9375 C-1.61857422 17.08994141 -1.67464844 16.24238281 -1.73242188 15.36914062 C-2.02000027 10.40362039 -1.97980799 5.88606236 -1 1 C-0.67 0.67 -0.34 0.34 0 0 Z " fill="#406A93" transform="translate(71,81)"/>
<path d="M0 0 C1.90643763 2.85965645 2.5047285 4.6141801 3.3125 7.875 C4.66838746 12.43692677 5.82149039 15.3657222 10 18 C14.2383563 18.20147116 17.99945171 17.3335161 22 16 C20.96461386 18.82378039 20.33380245 19.8243145 17.625 21.25 C15 22 15 22 11 22 C11.66 22.66 12.32 23.32 13 24 C9 24 9 24 6.5 22.125 C1.92521219 17.11114587 -0.23941498 10.58590432 -0.25 3.875 C-0.1675 2.59625 -0.085 1.3175 0 0 Z " fill="#818389" transform="translate(62,126)"/>
<path d="M0 0 C-3.08329292 0.91356827 -5.79202988 1.08225564 -9 1 C-9.99 1 -10.98 1 -12 1 C-12.66 0.67 -13.32 0.34 -14 0 C-14.33 1.65 -14.66 3.3 -15 5 C-15.88042969 4.85820313 -16.76085937 4.71640625 -17.66796875 4.5703125 C-24.00227227 3.4659404 -24.00227227 3.4659404 -29.90625 5.1640625 C-31.41174691 6.93566773 -31.41174691 6.93566773 -33 10 C-33.66 10.99 -34.32 11.98 -35 13 C-34.92849639 9.9968485 -34.60896861 7.77895678 -32.7265625 5.37109375 C-24.19027615 -2.62416037 -10.70881766 -4.63084007 0 0 Z " fill="#2E425F" transform="translate(98,65)"/>
<path d="M0 0 C0.33 0 0.66 0 1 0 C1.33 3.3 1.66 6.6 2 10 C2.66 10 3.32 10 4 10 C2.94633868 13.05561782 2.02789701 13.98224736 -0.75 15.75 C-4.24092992 17.09266535 -6.30633696 17.55012003 -10 17 C-13.27584369 15.03449378 -14.72058689 13.94570593 -15.8125 10.25 C-15.874375 9.5075 -15.93625 8.765 -16 8 C-13.525 8.99 -13.525 8.99 -11 10 C-11.99 10.495 -11.99 10.495 -13 11 C-13 11.66 -13 12.32 -13 13 C-8.58937864 14.0257259 -6.07369424 14.03684712 -2 12 C-2 10.68 -2 9.36 -2 8 C-1.34 8 -0.68 8 0 8 C0 5.36 0 2.72 0 0 Z " fill="#1D212F" transform="translate(82,128)"/>
<path d="M0 0 C1.485 0.99 1.485 0.99 3 2 C3.99 1.34 4.98 0.68 6 0 C6.2475 0.61875 6.495 1.2375 6.75 1.875 C7.81460222 4.14291141 7.81460222 4.14291141 10 4.9375 C12.74986668 6.39836667 13.08833304 8.11305462 14 11 C13.195625 11.28875 12.39125 11.5775 11.5625 11.875 C8.8673532 12.73262568 8.8673532 12.73262568 8 15 C6.66121428 12.8782637 5.32884524 10.75294812 4 8.625 C3.6184375 8.02171875 3.236875 7.4184375 2.84375 6.796875 C0 2.2265625 0 2.2265625 0 0 Z " fill="#364D81" transform="translate(114,100)"/>
<path d="M0 0 C0.33 0 0.66 0 1 0 C1 3.96 1 7.92 1 12 C2.65 11.67 4.3 11.34 6 11 C8.44043988 11.08322732 10.87923369 11.23283274 13.3125 11.4375 C15.19388672 11.59025391 15.19388672 11.59025391 17.11328125 11.74609375 C18.54220703 11.87177734 18.54220703 11.87177734 20 12 C20 8.37 20 4.74 20 1 C20.33 1 20.66 1 21 1 C21 9.91 21 18.82 21 28 C20.67 28 20.34 28 20 28 C20 23.05 20 18.1 20 13 C16.90625 13.2165625 16.90625 13.2165625 13.75 13.4375 C12.58984375 13.51871094 11.4296875 13.59992188 10.234375 13.68359375 C7.13050083 13.90211812 7.13050083 13.90211812 4.703125 14.59765625 C3 15 3 15 1 14 C1 18.62 1 23.24 1 28 C0.67 28 0.34 28 0 28 C0 18.76 0 9.52 0 0 Z " fill="#4F5D68" transform="translate(158,92)"/>
<path d="M0 0 C2.09749995 2.35968744 2.96905704 3.54616994 3.1875 6.75 C3.0946875 7.86375 3.0946875 7.86375 3 9 C0.69 9 -1.62 9 -4 9 C-4.33 8.34 -4.66 7.68 -5 7 C-7.43717258 7.27034634 -7.43717258 7.27034634 -10 8 C-11.9451 10.91765 -12.45276317 12.62537285 -13 16 C-13.33 16 -13.66 16 -14 16 C-14.60736196 8.10429448 -14.60736196 8.10429448 -12.625 4.5 C-8.6291601 2.21666291 -4.53672306 2.17315737 0 2 C0 1.34 0 0.68 0 0 Z " fill="#6C6D6F" transform="translate(171,75)"/>
<path d="M0 0 C4.875 4.625 4.875 4.625 6 8 C5.34 8 4.68 8 4 8 C3.9175 8.53625 3.835 9.0725 3.75 9.625 C2.73623902 12.8352431 0.92839451 15.26292392 -1 18 C-2.0625 16.25 -2.0625 16.25 -3 14 C-2.66666667 12.66666667 -2.33333333 11.33333333 -2 10 C-2.85790183 7.78228936 -2.85790183 7.78228936 -4 6 C-2.68 4.02 -1.36 2.04 0 0 Z " fill="#888D90" transform="translate(114,120)"/>
<path d="M0 0 C0.66 0 1.32 0 2 0 C2 3.63 2 7.26 2 11 C-0.97 11 -3.94 11 -7 11 C-7 8.36 -7 5.72 -7 3 C-4.50935112 2.31292445 -2.62113708 2 0 2 C0 1.34 0 0.68 0 0 Z " fill="#3E4E80" transform="translate(68,97)"/>
<path d="M0 0 C6.02536998 -0.602537 6.02536998 -0.602537 8.80078125 1.11328125 C10.25599455 2.34621853 11.63479157 3.66808933 13 5 C12.34 6.32 11.68 7.64 11 9 C9.37181054 8.77169299 7.7473651 8.51656424 6.125 8.25 C5.22007813 8.11078125 4.31515625 7.9715625 3.3828125 7.828125 C1 7 1 7 -0.3828125 5.109375 C-1 3 -1 3 0 0 Z " fill="#272F47" transform="translate(70,70)"/>
<path d="M0 0 C2.86126184 0.39465681 3.79139704 0.73912183 5.63671875 3.046875 C6.08660156 3.69140625 6.53648437 4.3359375 7 5 C6.04956626 6.33897583 5.08940853 7.67105427 4.125 9 C3.59132812 9.7425 3.05765625 10.485 2.5078125 11.25 C2.01023438 11.8275 1.51265625 12.405 1 13 C0.34 13 -0.32 13 -1 13 C-2.32 10.36 -3.64 7.72 -5 5 C-3.68 4.34 -2.36 3.68 -1 3 C-0.67 2.01 -0.34 1.02 0 0 Z " fill="#959B9D" transform="translate(131,93)"/>
<path d="M0 0 C1.25541557 3.76624671 0.37061958 5.37188934 -1 9 C1.64 8.34 4.28 7.68 7 7 C7 7.99 7 8.98 7 10 C7.99 9.67 8.98 9.34 10 9 C10.33 10.32 10.66 11.64 11 13 C9.02 13.99 9.02 13.99 7 15 C6.67 13.68 6.34 12.36 6 11 C4.68 11 3.36 11 2 11 C1.67 13.31 1.34 15.62 1 18 C-1.91445456 16.54277272 -2.65437601 14.94755732 -4 12 C-3.82748655 7.1696234 -2.75507594 3.95293504 0 0 Z " fill="#2B3B5D" transform="translate(69,71)"/>
<path d="M0 0 C0.02721176 1.89575251 0.04649136 3.79161979 0.0625 5.6875 C0.07410156 6.74324219 0.08570313 7.79898438 0.09765625 8.88671875 C0.00865425 11.72410262 -0.35060162 14.2438919 -1 17 C-3 14 -3 14 -4 11 C-4.66 10.01 -5.32 9.02 -6 8 C-6.99 8.495 -6.99 8.495 -8 9 C-8 6.36 -8 3.72 -8 1 C-5.23735711 0.40267181 -2.83967231 0 0 0 Z " fill="#C8CED1" transform="translate(168,105)"/>
<path d="M0 0 C4.84824868 0.41556417 6.88036862 2.37448245 10 6 C10.66 7.32 11.32 8.64 12 10 C9.03 10 6.06 10 3 10 C-0.22265625 4.82421875 -0.22265625 4.82421875 -1 3 C-0.67 2.01 -0.34 1.02 0 0 Z " fill="#3A4C83" transform="translate(103,96)"/>
<path d="M0 0 C1.2065625 0.495 1.2065625 0.495 2.4375 1 C6.73804795 2.20717135 10.56966181 2.17721353 15 2 C15.625 4.875 15.625 4.875 16 8 C15.34 8.66 14.68 9.32 14 10 C13.01 10 12.02 10 11 10 C11 9.34 11 8.68 11 8 C10.34 8 9.68 8 9 8 C9 7.34 9 6.68 9 6 C6.69 5.67 4.38 5.34 2 5 C2 4.01 2 3.02 2 2 C1.34 2 0.68 2 0 2 C0 1.34 0 0.68 0 0 Z " fill="#6D6E71" transform="translate(156,138)"/>
<path d="M0 0 C0.28875 0.598125 0.5775 1.19625 0.875 1.8125 C2.04742026 4.19327792 2.04742026 4.19327792 4 7 C4.375 9.5 4.375 9.5 4 12 C2 13.8125 2 13.8125 0 15 C-2.125 12.9375 -2.125 12.9375 -4 10 C-3.30329465 5.95910895 -2.27303788 3.40955682 0 0 Z " fill="#8F9597" transform="translate(123,84)"/>
<path d="M0 0 C0 1.98 0 3.96 0 6 C-4.29 6 -8.58 6 -13 6 C-13 5.34 -13 4.68 -13 4 C-12.34 4 -11.68 4 -11 4 C-10.71125 3.360625 -10.4225 2.72125 -10.125 2.0625 C-7.72413483 -2.33908615 -4.35711616 -0.72618603 0 0 Z " fill="#BABBBD" transform="translate(178,98)"/>
<path d="M0 0 C0.99 0 1.98 0 3 0 C3.83848804 1.45537568 4.67063934 2.91440373 5.5 4.375 C6.19609375 5.59316406 6.19609375 5.59316406 6.90625 6.8359375 C8 9 8 9 8 11 C6.02 11.99 6.02 11.99 4 13 C2.33333333 11.33333333 0.66666667 9.66666667 -1 8 C-1 5.16032769 -0.59732819 2.76264289 0 0 Z " fill="#6B7885" transform="translate(106,109)"/>
<path d="M0 0 C2.64 0 5.28 0 8 0 C8 2.97 8 5.94 8 9 C7.01 9.495 7.01 9.495 6 10 C5.67 9.34 5.34 8.68 5 8 C2.47266765 7.34444881 2.47266765 7.34444881 0 7 C0 4.69 0 2.38 0 0 Z " fill="#CDD2D5" transform="translate(170,106)"/>
<path d="M0 0 C2.6875 -0.3125 2.6875 -0.3125 6 0 C8.875 2.5 8.875 2.5 11 5 C10.67 5.99 10.34 6.98 10 8 C8.67696283 8.3721042 7.34262065 8.70630173 6 9 C5.67 9.66 5.34 10.32 5 11 C4.16151196 9.54462432 3.32936066 8.08559627 2.5 6.625 C1.80390625 5.40683594 1.80390625 5.40683594 1.09375 4.1640625 C0 2 0 2 0 0 Z " fill="#324575" transform="translate(107,105)"/>
<path d="M0 0 C3.33557632 2.9905167 5.15083921 5.93184627 7 10 C5.9275 9.979375 4.855 9.95875 3.75 9.9375 C0.85209576 9.9857984 -1.28612141 10.13155885 -4 11 C-4.66 8.69 -5.32 6.38 -6 4 C-3.525 4.495 -3.525 4.495 -1 5 C-0.67 3.35 -0.34 1.7 0 0 Z " fill="#2C4368" transform="translate(135,123)"/>
<path d="M0 0 C1.08667969 0.52400391 1.08667969 0.52400391 2.1953125 1.05859375 C9.30984218 4.46045991 9.30984218 4.46045991 17 6 C17 6.33 17 6.66 17 7 C10.93184478 8.22899346 5.20104812 9.27560214 -1 9 C-0.01 7.35 0.98 5.7 2 4 C1.34 3.67 0.68 3.34 0 3 C0 2.01 0 1.02 0 0 Z " fill="#1A263F" transform="translate(149,144)"/>
<path d="M0 0 C6.92884634 1.29181881 11.69502387 6.03149215 15.6875 11.6875 C15.0275 12.3475 14.3675 13.0075 13.6875 13.6875 C13.1615625 12.6046875 13.1615625 12.6046875 12.625 11.5 C9.30688171 6.68337668 5.77849612 4.07734673 0 3 C-3.58773371 3.38080834 -3.58773371 3.38080834 -5.75 6.6875 C-6.265625 7.6775 -6.78125 8.6675 -7.3125 9.6875 C-8.125 8 -8.125 8 -8.3125 5.6875 C-5.79951555 2.23214639 -4.21141541 0.87406735 0 0 Z " fill="#5789A4" transform="translate(73.3125,67.3125)"/>
<path d="M0 0 C0.99 0 1.98 0 3 0 C3.48736475 6.70126536 2.07708804 11.06561592 -1 17 C-1.66 17 -2.32 17 -3 17 C-2.48517081 11.147205 -1.54642808 5.6702363 0 0 Z " fill="#9B9EA4" transform="translate(93,176)"/>
<path d="M0 0 C-0.33 1.32 -0.66 2.64 -1 4 C-2.43534841 4.2226746 -3.87345525 4.42761906 -5.3125 4.625 C-6.11300781 4.74101563 -6.91351563 4.85703125 -7.73828125 4.9765625 C-10 5 -10 5 -13 3 C-8.30609874 -0.77801809 -5.8692391 -1.40861738 0 0 Z " fill="#555658" transform="translate(168,72)"/>
<path d="M0 0 C4.95 0 9.9 0 15 0 C15 1.32 15 2.64 15 4 C14.34 4 13.68 4 13 4 C12.34 3.34 11.68 2.68 11 2 C8.28545044 1.67247766 5.74769241 1.8691575 3 2 C1.67931 3.09037315 1.67931 3.09037315 1.9375 5.765625 C1.97897988 8.07812836 2.02064486 10.3906284 2.0625 12.703125 C2.00705319 15.62794431 1.68193407 18.16571153 1 21 C0.67 21 0.34 21 0 21 C0 14.07 0 7.14 0 0 Z " fill="#535E84" transform="translate(61,110)"/>
<path d="M0 0 C2.4375 0.75 2.4375 0.75 5 2 C5.8125 4.125 5.8125 4.125 6 6 C5.34 6 4.68 6 4 6 C4 6.66 4 7.32 4 8 C1.61435923 7.42415568 -0.66682784 6.77772405 -3 6 C-3 6.66 -3 7.32 -3 8 C-3.66 8 -4.32 8 -5 8 C-3.62845496 5.04590299 -2.01136276 2.55991624 0 0 Z " fill="#B4B9BC" transform="translate(100,122)"/>
<path d="M0 0 C0.33 0 0.66 0 1 0 C1 3.3 1 6.6 1 10 C3.97 10 6.94 10 10 10 C10 10.66 10 11.32 10 12 C3.73 12 -2.54 12 -9 12 C-9 11.34 -9 10.68 -9 10 C-6.03 10 -3.06 10 0 10 C0 6.7 0 3.4 0 0 Z " fill="#889CB7" transform="translate(70,98)"/>
<path d="M0 0 C5.53949982 5.11338445 9.90808535 11.12907855 13 18 C9.27530918 16.49338349 7.31774969 14.35218536 4.8125 11.25 C4.11769531 10.40953125 3.42289063 9.5690625 2.70703125 8.703125 C0.82848712 5.72840523 0.34023551 3.47344914 0 0 Z " fill="#4E7A93" transform="translate(140,126)"/>
<path d="M0 0 C2.64 0 5.28 0 8 0 C8 3 8 3 7 5 C6.34 5 5.68 5 5 5 C4.67 5.66 4.34 6.32 4 7 C2.68 7 1.36 7 0 7 C0 4.69 0 2.38 0 0 Z " fill="#AFB6B7" transform="translate(160,97)"/>
<path d="M0 0 C0.9075 0.845625 1.815 1.69125 2.75 2.5625 C5.18952952 4.73261875 5.18952952 4.73261875 8.375 4.8125 C8.91125 4.544375 9.4475 4.27625 10 4 C11.32 6.31 12.64 8.62 14 11 C13.01 11.33 12.02 11.66 11 12 C11 11.34 11 10.68 11 10 C8.9254644 8.7763932 8.9254644 8.7763932 6 9 C3 8 3 8 1.3125 5.625 C0 3 0 3 0 0 Z " fill="#3E5795" transform="translate(110,93)"/>
<path d="M0 0 C1.65 1.65 3.3 3.3 5 5 C4.34 5.66 3.68 6.32 3 7 C1.35 6.01 -0.3 5.02 -2 4 C-1.67 5.32 -1.34 6.64 -1 8 C-2.98 8.33 -4.96 8.66 -7 9 C-6.34 7.02 -5.68 5.04 -5 3 C-4.01 3 -3.02 3 -2 3 C-2 2.34 -2 1.68 -2 1 C-1.34 0.67 -0.68 0.34 0 0 Z " fill="#CCCECF" transform="translate(99,127)"/>
<path d="M0 0 C0.85609863 0.23771118 0.85609863 0.23771118 1.72949219 0.48022461 C3.97210188 0.99361343 6.03317915 1.20165896 8.328125 1.31640625 C9.52695313 1.37924805 9.52695313 1.37924805 10.75 1.44335938 C11.9875 1.50233398 11.9875 1.50233398 13.25 1.5625 C14.09046875 1.60568359 14.9309375 1.64886719 15.796875 1.69335938 C17.86440671 1.79908543 19.93218281 1.90001295 22 2 C18.50756472 4.14656998 15.68303267 4.26891857 11.625 4.25 C10.52414063 4.25515625 9.42328125 4.2603125 8.2890625 4.265625 C4.90167774 3.99205949 2.16555972 3.20501669 -1 2 C-0.67 1.34 -0.34 0.68 0 0 Z " fill="#696D72" transform="translate(75,150)"/>
<path d="M0 0 C-3.16610547 1.01767676 -4.83031702 0.79242075 -8 0 C-12.68356036 -0.34836399 -15.80961344 -0.16278016 -20 2 C-22.33203812 2.0777346 -24.66839059 2.08967728 -27 2 C-19.17004922 -3.21996718 -8.60554462 -3.72131659 0 0 Z " fill="#2D364D" transform="translate(98,65)"/>
<path d="M0 0 C1.53166168 4.08443115 0.63081652 7.79455657 0 12 C0.66 12 1.32 12 2 12 C2 12.66 2 13.32 2 14 C0.68 14 -0.64 14 -2 14 C-2.33 14.66 -2.66 15.32 -3 16 C-3.99 14.68 -4.98 13.36 -6 12 C-5.34 12 -4.68 12 -4 12 C-3.79503906 11.38511719 -3.59007812 10.77023438 -3.37890625 10.13671875 C-2.25260417 6.7578125 -1.12630208 3.37890625 0 0 Z " fill="#4A515A" transform="translate(156,128)"/>
<path d="M0 0 C1.0625 1.875 1.0625 1.875 2 4 C1.67 4.66 1.34 5.32 1 6 C-0.32 6 -1.64 6 -3 6 C-2.319375 6.928125 -1.63875 7.85625 -0.9375 8.8125 C-0.298125 9.864375 0.34125 10.91625 1 12 C0.67 12.99 0.34 13.98 0 15 C-1.65 13.35 -3.3 11.7 -5 10 C-3.84414715 6.08788267 -2.64465038 3.1254959 0 0 Z " fill="#ADACAE" transform="translate(128,77)"/>
<path d="M0 0 C3 1 3 1 4 3 C5.32 3 6.64 3 8 3 C8.33 2.34 8.66 1.68 9 1 C9.66 1 10.32 1 11 1 C10.6875 2.875 10.6875 2.875 10 5 C7 7 7 7 4.4375 6.8125 C2 6 2 6 0 3 C0 2.01 0 1.02 0 0 Z " fill="#73767F" transform="translate(164,178)"/>
<path d="M0 0 C-2.07553648 0.5534764 -3.84365964 1 -6 1 C-6.33 0.34 -6.66 -0.32 -7 -1 C-13.27 -1.33 -19.54 -1.66 -26 -2 C-26 -2.33 -26 -2.66 -26 -3 C-17.48894403 -4.78138381 -7.45265136 -4.89745661 0 0 Z " fill="#6A6B71" transform="translate(169,67)"/>
<path d="M0 0 C4.875 4.625 4.875 4.625 6 8 C5.34 8 4.68 8 4 8 C3.67 9.32 3.34 10.64 3 12 C1 8.25 1 8.25 1 6 C0.34 5.34 -0.32 4.68 -1 4 C-0.625 1.875 -0.625 1.875 0 0 Z " fill="#546B80" transform="translate(114,120)"/>
<path d="M0 0 C0.99 0 1.98 0 3 0 C3.02721176 1.89575251 3.04649136 3.79161979 3.0625 5.6875 C3.07410156 6.74324219 3.08570313 7.79898438 3.09765625 8.88671875 C3.00865425 11.72410262 2.64939838 14.2438919 2 17 C0 14 0 14 -1 11 C-1.2475 10.34 -1.495 9.68 -1.75 9 C-1.8325 8.34 -1.915 7.68 -2 7 C-0.625 5.4375 -0.625 5.4375 1 4 C1.33 3.01 1.66 2.02 2 1 C1.34 0.67 0.68 0.34 0 0 Z " fill="#B7C6CA" transform="translate(165,105)"/>
<path d="M0 0 C4.00972202 3.67557852 6.45335415 7.18966896 9 12 C8.34 12.66 7.68 13.32 7 14 C5.82508418 12.23462904 4.66031316 10.46250287 3.5 8.6875 C2.8503125 7.70136719 2.200625 6.71523437 1.53125 5.69921875 C0 3 0 3 0 0 Z " fill="#5E97AF" transform="translate(88,79)"/>
<path d="M0 0 C0.66 0.99 1.32 1.98 2 3 C1.56487572 4.64008381 1.11493235 6.2783541 0.57421875 7.88671875 C-0.32516472 11.19669465 -0.44998719 14.54728794 -0.65625 17.9609375 C-0.7696875 18.63382813 -0.883125 19.30671875 -1 20 C-1.66 20.33 -2.32 20.66 -3 21 C-2.88588196 18.24915453 -2.75914051 15.49988053 -2.625 12.75 C-2.5940625 11.97269531 -2.563125 11.19539063 -2.53125 10.39453125 C-2.16618114 3.27568856 -2.16618114 3.27568856 0 0 Z " fill="#4B5D80" transform="translate(64,75)"/>
<path d="M0 0 C0.99 0 1.98 0 3 0 C3 1.32 3 2.64 3 4 C3.66 4 4.32 4 5 4 C5.66 5.98 6.32 7.96 7 10 C6.01 10 5.02 10 4 10 C4 9.34 4 8.68 4 8 C3.34 8 2.68 8 2 8 C0.3125 5.6875 0.3125 5.6875 -1 3 C-0.67 2.01 -0.34 1.02 0 0 Z " fill="#4870A7" transform="translate(103,85)"/>
<path d="M0 0 C0.33 0 0.66 0 1 0 C1 1.98 1 3.96 1 6 C1.66 6.33 2.32 6.66 3 7 C2.67 7.99 2.34 8.98 2 10 C3.65 8.68 5.3 7.36 7 6 C7 7.65 7 9.3 7 11 C4.69 11.33 2.38 11.66 0 12 C0 8.04 0 4.08 0 0 Z " fill="#384F84" transform="translate(72,96)"/>
<path d="M0 0 C2.88575819 0.39803561 3.82189513 0.79009069 5.75 3.0625 C6.1625 3.701875 6.575 4.34125 7 5 C5.625 7 5.625 7 4 9 C3.34 9 2.68 9 2 9 C2 7.35 2 5.7 2 4 C1.34 4 0.68 4 0 4 C0 2.68 0 1.36 0 0 Z " fill="#A7A9A9" transform="translate(131,93)"/>
<path d="M0 0 C3.40597755 1.13532585 3.53452572 1.48116822 5.0625 4.5 C6.42445528 7.33019068 6.42445528 7.33019068 9 9 C9 9.66 9 10.32 9 11 C7.68 11.33 6.36 11.66 5 12 C4.3490741 10.75264433 3.70448331 9.50198168 3.0625 8.25 C2.70285156 7.55390625 2.34320313 6.8578125 1.97265625 6.140625 C1.04441818 4.09775567 0.46833422 2.18884624 0 0 Z " fill="#405C83" transform="translate(111,81)"/>
<path d="M0 0 C5.57142857 5.14285714 5.57142857 5.14285714 6 9 C3 9 3 9 0.9375 7.0625 C0.298125 6.381875 -0.34125 5.70125 -1 5 C-1.66 4.67 -2.32 4.34 -3 4 C-3 3.34 -3 2.68 -3 2 C-2.01 2 -1.02 2 0 2 C0 1.34 0 0.68 0 0 Z " fill="#80838A" transform="translate(169,68)"/>
<path d="M0 0 C2.475 0.99 2.475 0.99 5 2 C5 2.66 5 3.32 5 4 C4.195625 4.28875 3.39125 4.5775 2.5625 4.875 C-0.1326468 5.73262568 -0.1326468 5.73262568 -1 8 C-1.625 5.6875 -1.625 5.6875 -2 3 C-1.34 2.01 -0.68 1.02 0 0 Z " fill="#344775" transform="translate(123,107)"/>
<path d="M0 0 C1.2065625 0.0309375 1.2065625 0.0309375 2.4375 0.0625 C2.4375 0.7225 2.4375 1.3825 2.4375 2.0625 C1.7775 2.0625 1.1175 2.0625 0.4375 2.0625 C0.7675 3.7125 1.0975 5.3625 1.4375 7.0625 C-0.2125 6.7325 -1.8625 6.4025 -3.5625 6.0625 C-3.605221 4.39638095 -3.60313832 2.72867115 -3.5625 1.0625 C-2.5625 0.0625 -2.5625 0.0625 0 0 Z " fill="#4D5F95" transform="translate(65.5625,99.9375)"/>
<path d="M0 0 C4.82382465 0.26799026 6.86565605 2.50744532 10 6 C9.67 6.66 9.34 7.32 9 8 C8.34 6.68 7.68 5.36 7 4 C6.401875 4.165 5.80375 4.33 5.1875 4.5 C3 5 3 5 0 5 C-0.5625 3.0625 -0.5625 3.0625 -1 1 C-0.67 0.67 -0.34 0.34 0 0 Z " fill="#3B538C" transform="translate(103,96)"/>
<path d="M0 0 C0.33 0.66 0.66 1.32 1 2 C0.0625 4.125 0.0625 4.125 -1 6 C-0.34 6 0.32 6 1 6 C1 6.66 1 7.32 1 8 C1.66 8 2.32 8 3 8 C3 8.66 3 9.32 3 10 C2.01 10.33 1.02 10.66 0 11 C0 10.01 0 9.02 0 8 C-2.475 7.01 -2.475 7.01 -5 6 C-2.25 1.125 -2.25 1.125 0 0 Z " fill="#A6AAAC" transform="translate(105,116)"/>
<path d="M0 0 C2 1.8125 2 1.8125 4 4 C4 4.99 4 5.98 4 7 C4.66 7.33 5.32 7.66 6 8 C5.01 8.99 4.02 9.98 3 11 C-1.06153846 4.6 -1.06153846 4.6 -0.75 1.5625 C-0.5025 1.046875 -0.255 0.53125 0 0 Z " fill="#717F89" transform="translate(126,99)"/>
<path d="M0 0 C0.66 0.33 1.32 0.66 2 1 C1.01 5.95 0.02 10.9 -1 16 C-1.33 16 -1.66 16 -2 16 C-2 11.38 -2 6.76 -2 2 C-1.34 2 -0.68 2 0 2 C0 1.34 0 0.68 0 0 Z " fill="#292F45" transform="translate(83,78)"/>
<path d="M0 0 C1.51953125 1.20703125 1.51953125 1.20703125 3 3 C3.07421875 5.26171875 3.07421875 5.26171875 2.6875 7.6875 C2.50767578 8.89986328 2.50767578 8.89986328 2.32421875 10.13671875 C2.21722656 10.75160156 2.11023438 11.36648437 2 12 C1.67 11.34 1.34 10.68 1 10 C0.34 10 -0.32 10 -1 10 C-1.125 3.375 -1.125 3.375 0 0 Z " fill="#ACADAF" transform="translate(110,127)"/>
<path d="M0 0 C0.66 0.99 1.32 1.98 2 3 C1.34 4.32 0.68 5.64 0 7 C-1.32 6.67 -2.64 6.34 -4 6 C-3.6875 4.125 -3.6875 4.125 -3 2 C-2.01 1.34 -1.02 0.68 0 0 Z " fill="#27375B" transform="translate(134,122)"/>
<path d="M0 0 C2.97722547 0.70333538 5.85256543 1.58248537 8.75 2.5625 C9.94882813 2.96662109 9.94882813 2.96662109 11.171875 3.37890625 C11.77515625 3.58386719 12.3784375 3.78882813 13 4 C13 4.66 13 5.32 13 6 C5.73846154 5.63076923 5.73846154 5.63076923 2 2.4375 C1.34 1.633125 0.68 0.82875 0 0 Z " fill="#52687E" transform="translate(152,144)"/>
<path d="M0 0 C0.99 0 1.98 0 3 0 C4.65 2.97 6.3 5.94 8 9 C4.68470727 8.01437243 3.25050621 7.34552581 1.1875 4.5 C0 2 0 2 0 0 Z " fill="#36405E" transform="translate(118,128)"/>
<path d="M0 0 C2 2 2 2 2 5 C-2.29 5 -6.58 5 -11 5 C-11 4.67 -11 4.34 -11 4 C-9.9275 3.896875 -8.855 3.79375 -7.75 3.6875 C-4.14179128 3.02599507 -2.63604977 2.42516579 0 0 Z " fill="#BAC5C8" transform="translate(176,99)"/>
<path d="M0 0 C0.77321882 2.98241547 1.41196203 5.97580475 2 9 C2.99 8.67 3.98 8.34 5 8 C4.34 9.32 3.68 10.64 3 12 C1.35 10.35 -0.3 8.7 -2 7 C-1.34 4.69 -0.68 2.38 0 0 Z " fill="#708188" transform="translate(121,87)"/>
<path d="M0 0 C0.66 0.33 1.32 0.66 2 1 C2 2.98 2 4.96 2 7 C1.01 7.495 1.01 7.495 0 8 C-0.33 7.34 -0.66 6.68 -1 6 C-1.99 5.67 -2.98 5.34 -4 5 C-2.25 1.125 -2.25 1.125 0 0 Z " fill="#B3BDC3" transform="translate(135,88)"/>
<path d="M0 0 C0.33 0.66 0.66 1.32 1 2 C0.34 1.67 -0.32 1.34 -1 1 C-0.67 0.67 -0.34 0.34 0 0 Z M-8 2 C-7.21625 2.185625 -6.4325 2.37125 -5.625 2.5625 C-3.02910225 3.25962266 -3.02910225 3.25962266 -1 2 C-1 3.65 -1 5.3 -1 7 C-1.99 7 -2.98 7 -4 7 C-4.33 6.34 -4.66 5.68 -5 5 C-5.99 5.33 -6.98 5.66 -8 6 C-8 4.68 -8 3.36 -8 2 Z " fill="#CECECE" transform="translate(145,82)"/>
<path d="M0 0 C0.268125 0.639375 0.53625 1.27875 0.8125 1.9375 C1.88667752 4.33131686 1.88667752 4.33131686 5 5 C4.01 5.99 3.02 6.98 2 8 C1.34 7.67 0.68 7.34 0 7 C0 6.34 0 5.68 0 5 C-0.66 5 -1.32 5 -2 5 C-1.34 3.35 -0.68 1.7 0 0 Z " fill="#8C9799" transform="translate(106,117)"/>
<path d="M0 0 C0 3 0 3 -1.5625 4.75 C-4.97137113 6.49813904 -7.33659437 5.77495119 -11 5 C-11 4.67 -11 4.34 -11 4 C-10.37351562 3.79503906 -9.74703125 3.59007812 -9.1015625 3.37890625 C-8.28429687 3.10949219 -7.46703125 2.84007812 -6.625 2.5625 C-5.81289062 2.29566406 -5.00078125 2.02882812 -4.1640625 1.75390625 C-1.98968201 1.04820271 -1.98968201 1.04820271 0 0 Z " fill="#949698" transform="translate(83,142)"/>
<path d="M0 0 C2.475 0.99 2.475 0.99 5 2 C3.25 5.875 3.25 5.875 1 7 C1 6.34 1 5.68 1 5 C0.34 5 -0.32 5 -1 5 C-0.67 3.35 -0.34 1.7 0 0 Z " fill="#BCBBBE" transform="translate(106,137)"/>
<path d="M0 0 C0.66 0 1.32 0 2 0 C2.66 1.65 3.32 3.3 4 5 C2.02 5.66 0.04 6.32 -2 7 C-1.34 4.69 -0.68 2.38 0 0 Z " fill="#4A5FA9" transform="translate(111,85)"/>
<path d="M0 0 C0.66 0 1.32 0 2 0 C2 0.66 2 1.32 2 2 C4.31 2 6.62 2 9 2 C9 2.99 9 3.98 9 5 C6.69 5 4.38 5 2 5 C1.34 3.35 0.68 1.7 0 0 Z " fill="#74767E" transform="translate(104,191)"/>
<path d="M0 0 C0.66 0 1.32 0 2 0 C6 6.75 6 6.75 6 9 C3.5067466 8.00269864 2.22532561 7.34925469 0.75 5.0625 C0 3 0 3 0 0 Z " fill="#6CA9C3" transform="translate(96,91)"/>
<path d="M0 0 C1.32 0 2.64 0 4 0 C4.66 1.65 5.32 3.3 6 5 C5.34 5.66 4.68 6.32 4 7 C0 2.25 0 2.25 0 0 Z " fill="#B9BABF" transform="translate(125,83)"/>
<path d="M0 0 C0.99 0 1.98 0 3 0 C3 1.65 3 3.3 3 5 C0.69 5 -1.62 5 -4 5 C-3.67 4.34 -3.34 3.68 -3 3 C-2.34 3 -1.68 3 -1 3 C-0.67 2.01 -0.34 1.02 0 0 Z " fill="#7A7B7D" transform="translate(171,79)"/>
<path d="M0 0 C1.5 1.1875 1.5 1.1875 3 3 C3.1875 5.6875 3.1875 5.6875 3 8 C2.01 8.33 1.02 8.66 0 9 C-1.15941038 5.52176885 -0.70820884 3.54104422 0 0 Z " fill="#72757D" transform="translate(117,188)"/>
<path d="M0 0 C0.33 0.66 0.66 1.32 1 2 C0.00390625 3.9453125 0.00390625 3.9453125 -1.4375 6.125 C-1.91058594 6.84945312 -2.38367188 7.57390625 -2.87109375 8.3203125 C-3.24363281 8.87460938 -3.61617188 9.42890625 -4 10 C-5.32 9.67 -6.64 9.34 -8 9 C-5.36 6.03 -2.72 3.06 0 0 Z " fill="#8B8B92" transform="translate(92,132)"/>
<path d="M0 0 C0.99 0.33 1.98 0.66 3 1 C3.33 2.98 3.66 4.96 4 7 C3.01 6.67 2.02 6.34 1 6 C1 5.34 1 4.68 1 4 C0.01 3.67 -0.98 3.34 -2 3 C-2 2.34 -2 1.68 -2 1 C-1.34 0.67 -0.68 0.34 0 0 Z " fill="#959694" transform="translate(170,133)"/>
<path d="M0 0 C2.02350324 3.03525486 2.32124018 4.19426202 2.625 7.6875 C2.69976562 8.49574219 2.77453125 9.30398437 2.8515625 10.13671875 C2.90054688 10.75160156 2.94953125 11.36648437 3 12 C0.89366282 10.29171079 0.06198392 9.47851584 -0.29296875 6.73828125 C-0.25816406 5.93777344 -0.22335938 5.13726562 -0.1875 4.3125 C-0.16042969 3.50425781 -0.13335937 2.69601563 -0.10546875 1.86328125 C-0.07066406 1.24839844 -0.03585938 0.63351563 0 0 Z " fill="#9398A6" transform="translate(62,126)"/>
<path d="M0 0 C1.65 0 3.3 0 5 0 C5 1.32 5 2.64 5 4 C3.35 4.33 1.7 4.66 0 5 C0 3.35 0 1.7 0 0 Z " fill="#BFC6C8" transform="translate(170,113)"/>
<path d="M0 0 C0.99 0.33 1.98 0.66 3 1 C2.67 1.99 2.34 2.98 2 4 C2 3.34 2 2.68 2 2 C1.34 2 0.68 2 0 2 C0 1.34 0 0.68 0 0 Z M0 2 C0 4.31 0 6.62 0 9 C-1.5 7.6875 -1.5 7.6875 -3 6 C-3 5.01 -3 4.02 -3 3 C-1 2 -1 2 0 2 Z " fill="#3D5E9B" transform="translate(102,89)"/>
<path d="M0 0 C2.475 0.99 2.475 0.99 5 2 C4.01 2.495 4.01 2.495 3 3 C3 3.66 3 4.32 3 5 C3.99 5.33 4.98 5.66 6 6 C5.34 6.66 4.68 7.32 4 8 C0 3.375 0 3.375 0 0 Z " fill="#232735" transform="translate(66,136)"/>
<path d="M0 0 C0.99 0 1.98 0 3 0 C3.33 1.32 3.66 2.64 4 4 C1.69 4 -0.62 4 -3 4 C-1.6875 2 -1.6875 2 0 0 Z " fill="#1D212D" transform="translate(151,149)"/>
<path d="M0 0 C2.31 0.66 4.62 1.32 7 2 C6.67 3.32 6.34 4.64 6 6 C4.02 5.01 2.04 4.02 0 3 C0 2.01 0 1.02 0 0 Z " fill="#757779" transform="translate(155,135)"/>
<path d="M0 0 C0.99 0.495 0.99 0.495 2 1 C2 1.66 2 2.32 2 3 C2.99 3 3.98 3 5 3 C5 4.32 5 5.64 5 7 C3.68 6.67 2.36 6.34 1 6 C0.67 4.02 0.34 2.04 0 0 Z " fill="#497C9B" transform="translate(129,127)"/>
<path d="M0 0 C0.33 0 0.66 0 1 0 C1 3.63 1 7.26 1 11 C0.01 11 -0.98 11 -2 11 C-1.34 7.37 -0.68 3.74 0 0 Z " fill="#5B8597" transform="translate(167,122)"/>
<path d="M0 0 C3 1 3 1 4.75 3.9375 C5.1625 4.948125 5.575 5.95875 6 7 C5.67 7.66 5.34 8.32 5 9 C1.9083091 6.47043472 1.09068668 3.77545388 0 0 Z " fill="#5D90AC" transform="translate(108,111)"/>
<path d="M0 0 C0.66 0 1.32 0 2 0 C2 3.63 2 7.26 2 11 C1.67 11 1.34 11 1 11 C0.67 8.36 0.34 5.72 0 3 C-0.99 2.67 -1.98 2.34 -3 2 C-2.01 2 -1.02 2 0 2 C0 1.34 0 0.68 0 0 Z " fill="#3D588D" transform="translate(68,97)"/>
<path d="M0 0 C2.96404505 2.80804268 5.44499019 5.18315774 7 9 C6.01 9 5.02 9 4 9 C0 2.25 0 2.25 0 0 Z " fill="#6191B5" transform="translate(117,91)"/>
<path d="M0 0 C1.65 0.33 3.3 0.66 5 1 C5 1.66 5 2.32 5 3 C3.68 2.67 2.36 2.34 1 2 C1 2.66 1 3.32 1 4 C1.99 4.33 2.98 4.66 4 5 C2.02 5 0.04 5 -2 5 C-1.34 3.35 -0.68 1.7 0 0 Z " fill="#A3A9AD" transform="translate(166,92)"/>
<path d="M0 0 C1.32 0 2.64 0 4 0 C3.625 2.4375 3.625 2.4375 3 5 C2.01 5.495 2.01 5.495 1 6 C0.67 4.02 0.34 2.04 0 0 Z " fill="#497092" transform="translate(71,81)"/>
<path d="M0 0 C1.32 0.66 2.64 1.32 4 2 C3.1875 3.9375 3.1875 3.9375 2 6 C1.01 6.33 0.02 6.66 -1 7 C-0.67 4.69 -0.34 2.38 0 0 Z " fill="#36446D" transform="translate(64,82)"/>
<path d="M0 0 C2 3 2 3 1.625 6.1875 C1.41875 7.115625 1.2125 8.04375 1 9 C0.34 9 -0.32 9 -1 9 C-0.67 6.03 -0.34 3.06 0 0 Z " fill="#75767C" transform="translate(91,184)"/>
<path d="M0 0 C3.46941546 0.45822468 6.67395049 0.89131683 10 2 C10 2.66 10 3.32 10 4 C8.51882199 3.71872579 7.04006751 3.42466268 5.5625 3.125 C4.73878906 2.96257812 3.91507813 2.80015625 3.06640625 2.6328125 C2.38449219 2.42398438 1.70257813 2.21515625 1 2 C0.67 1.34 0.34 0.68 0 0 Z " fill="#5E5E61" transform="translate(155,142)"/>
<path d="M0 0 C0.99 0.99 1.98 1.98 3 3 C2.34 4.98 1.68 6.96 1 9 C-0.53846154 4.38461538 -0.53846154 4.38461538 -1 2 C-0.67 1.34 -0.34 0.68 0 0 Z " fill="#B7C5CA" transform="translate(130,81)"/>
<path d="M0 0 C1.0625 1.875 1.0625 1.875 2 4 C1.67 4.66 1.34 5.32 1 6 C-1.5625 6.625 -1.5625 6.625 -4 7 C-2.79618552 4.50638429 -1.54571278 2.31856917 0 0 Z " fill="#9B9D9E" transform="translate(128,77)"/>
<path d="M0 0 C3.125 -0.1875 3.125 -0.1875 6 0 C5.67 0.99 5.34 1.98 5 3 C2.69 3 0.38 3 -2 3 C-1.34 2.01 -0.68 1.02 0 0 Z " fill="#48494A" transform="translate(162,72)"/>
<path d="M0 0 C3 1 3 1 4.1875 3.0625 C4.455625 3.701875 4.72375 4.34125 5 5 C3.68 5 2.36 5 1 5 C0.67 3.35 0.34 1.7 0 0 Z " fill="#92959E" transform="translate(164,178)"/>
<path d="M0 0 C0.66 0 1.32 0 2 0 C1.67 1.65 1.34 3.3 1 5 C1.99 5 2.98 5 4 5 C3.67 5.99 3.34 6.98 3 8 C2.01 7.67 1.02 7.34 0 7 C0 4.69 0 2.38 0 0 Z " fill="#8497A4" transform="translate(164,128)"/>
<path d="M0 0 C2.4375 0.8125 2.4375 0.8125 5 2 C5.33 2.99 5.66 3.98 6 5 C5.01 5.33 4.02 5.66 3 6 C0 2.25 0 2.25 0 0 Z " fill="#476AA3" transform="translate(95,87)"/>
<path d="M0 0 C0.99 0.33 1.98 0.66 3 1 C2.67 2.32 2.34 3.64 2 5 C1.01 5 0.02 5 -1 5 C-0.67 3.35 -0.34 1.7 0 0 Z " fill="#76A7AF" transform="translate(133,84)"/>
<path d="M0 0 C2.97 0.495 2.97 0.495 6 1 C5.34 2.98 4.68 4.96 4 7 C2.45428722 4.68143083 1.20381448 2.49361571 0 0 Z " fill="#4A4C4F" transform="translate(152,77)"/>
<path d="M0 0 C2 1.375 2 1.375 4 3 C4 3.66 4 4.32 4 5 C3.01 5.33 2.02 5.66 1 6 C1 5.34 1 4.68 1 4 C0.01 3.67 -0.98 3.34 -2 3 C-1.34 2.67 -0.68 2.34 0 2 C0 1.34 0 0.68 0 0 Z " fill="#424E7C" transform="translate(106,73)"/>
<path d="" fill="#000000" transform="translate(0,0)"/>
<path d="" fill="#000000" transform="translate(0,0)"/>
<path d="" fill="#000000" transform="translate(0,0)"/>
<path d="" fill="#000000" transform="translate(0,0)"/>
<path d="" fill="#000000" transform="translate(0,0)"/>
<path d="" fill="#000000" transform="translate(0,0)"/>
<path d="" fill="#000000" transform="translate(0,0)"/>
<path d="" fill="#000000" transform="translate(0,0)"/>
<path d="" fill="#000000" transform="translate(0,0)"/>
<path d="" fill="#000000" transform="translate(0,0)"/>
<path d="" fill="#000000" transform="translate(0,0)"/>
<path d="" fill="#000000" transform="translate(0,0)"/>
<path d="" fill="#000000" transform="translate(0,0)"/>
<path d="" fill="#000000" transform="translate(0,0)"/>
<path d="" fill="#000000" transform="translate(0,0)"/>
<path d="" fill="#000000" transform="translate(0,0)"/>
<path d="" fill="#000000" transform="translate(0,0)"/>
<path d="" fill="#000000" transform="translate(0,0)"/>
<path d="" fill="#000000" transform="translate(0,0)"/>
<path d="" fill="#000000" transform="translate(0,0)"/>
<path d="" fill="#000000" transform="translate(0,0)"/>
<path d="" fill="#000000" transform="translate(0,0)"/>
<path d="" fill="#000000" transform="translate(0,0)"/>
<path d="" fill="#000000" transform="translate(0,0)"/>
<path d="" fill="#000000" transform="translate(0,0)"/>
<path d="" fill="#000000" transform="translate(0,0)"/>
<path d="" fill="#000000" transform="translate(0,0)"/>
<path d="" fill="#000000" transform="translate(0,0)"/>
<path d="" fill="#000000" transform="translate(0,0)"/>
<path d="" fill="#000000" transform="translate(0,0)"/>
<path d="" fill="#000000" transform="translate(0,0)"/>
<path d="" fill="#000000" transform="translate(0,0)"/>
<path d="" fill="#000000" transform="translate(0,0)"/>
<path d="" fill="#000000" transform="translate(0,0)"/>
<path d="" fill="#000000" transform="translate(0,0)"/>
<path d="" fill="#000000" transform="translate(0,0)"/>
<path d="" fill="#000000" transform="translate(0,0)"/>
<path d="" fill="#000000" transform="translate(0,0)"/>
<path d="" fill="#000000" transform="translate(0,0)"/>
<path d="" fill="#000000" transform="translate(0,0)"/>
<path d="" fill="#000000" transform="translate(0,0)"/>
<path d="" fill="#000000" transform="translate(0,0)"/>
<path d="" fill="#000000" transform="translate(0,0)"/>
<path d="" fill="#000000" transform="translate(0,0)"/>
<path d="" fill="#FF0000" transform="translate(0,0)"/>
<path d="" fill="#000000" transform="translate(0,0)"/>
<path d="" fill="#000000" transform="translate(0,0)"/>
<path d="" fill="#000000" transform="translate(0,0)"/>
<path d="" fill="#000000" transform="translate(0,0)"/>
<path d="" fill="#000000" transform="translate(0,0)"/>
<path d="" fill="#000000" transform="translate(0,0)"/>
<path d="" fill="#000000" transform="translate(0,0)"/>
<path d="" fill="#000000" transform="translate(0,0)"/>
<path d="" fill="#000000" transform="translate(0,0)"/>
<path d="" fill="#000000" transform="translate(0,0)"/>
<path d="" fill="#000000" transform="translate(0,0)"/>
<path d="" fill="#000000" transform="translate(0,0)"/>
<path d="" fill="#000000" transform="translate(0,0)"/>
<path d="" fill="#000000" transform="translate(0,0)"/>
<path d="" fill="#000000" transform="translate(0,0)"/>
<path d="" fill="#000000" transform="translate(0,0)"/>
<path d="" fill="#000000" transform="translate(0,0)"/>
<path d="" fill="#000000" transform="translate(0,0)"/>
<path d="" fill="#000000" transform="translate(0,0)"/>
<path d="" fill="#000000" transform="translate(0,0)"/>
<path d="" fill="#000000" transform="translate(0,0)"/>
<path d="" fill="#000000" transform="translate(0,0)"/>
<path d="" fill="#000000" transform="translate(0,0)"/>
<path d="" fill="#000000" transform="translate(0,0)"/>
<path d="" fill="#000000" transform="translate(0,0)"/>
<path d="" fill="#000000" transform="translate(0,0)"/>
<path d="" fill="#000000" transform="translate(0,0)"/>
<path d="" fill="#000000" transform="translate(0,0)"/>
<path d="" fill="#000000" transform="translate(0,0)"/>
<path d="" fill="#000000" transform="translate(0,0)"/>
<path d="" fill="#000000" transform="translate(0,0)"/>
<path d="" fill="#000000" transform="translate(0,0)"/>
<path d="" fill="#000000" transform="translate(0,0)"/>
</svg>
